<?xml version="1.0" encoding="utf-8"?>
<svg xmlns="http://www.w3.org/2000/svg" style="margin: auto; background-image: none; display: block; shape-rendering: auto; animation-play-state: running; animation-delay: 0s;" width="288" height="250" preserveAspectRatio="xMidYMid">
<style type="text/css" style="animation-play-state: running; animation-delay: 0s;">
  text {
    text-anchor: middle; font-size: 74px; opacity: 0;
  }
</style>
<g style="transform-origin: 144px 125px; transform: scale(0.925); animation-play-state: running; animation-delay: 0s;">
<g transform="translate(144,125)" style="animation-play-state: running; animation-delay: 0s;">
  <g transform="translate(0,0)" style="animation-play-state: running; animation-delay: 0s;"><g class="path" style="opacity: 1; transform-origin: -108.19999313354492px -6.6727142333984375px; animation: 3.3333333333333335s linear -1.9555555555555557s infinite normal forwards running blink-5c5d72a0-46a0-477e-9a37-f689c046d06c;"><path d="M42.08 0L34.16-47.92L26.24 0L19.44 0L6.24-56L11.04-56L22.48-5.52L31.04-56L37.28-56L45.84-5.52L57.12-56L61.92-56L48.88 0L42.08 0" fill="#1d3f72" stroke="none" stroke-width="none" transform="translate(-142.27999877929688,21.32728803846571)" style="fill: rgb(29, 63, 114); animation-play-state: running; animation-delay: 0s;"></path></g><g class="path" style="opacity: 1; transform-origin: -60.519996643066406px 1.40728759765625px; animation: 3.3333333333333335s linear -1.7111111111111112s infinite normal forwards running blink-5c5d72a0-46a0-477e-9a37-f689c046d06c;"><path d="M94.16-2.80L94.16-2.80Q91.28-0.96 87.60 0L87.60 0L87.60 0Q83.92 0.96 80.24 0.96L80.24 0.96L80.24 0.96Q74.32 0.96 70.84-1.96L70.84-1.96L70.84-1.96Q67.36-4.88 67.36-10.72L67.36-10.72L67.36-27.12L67.36-27.12Q67.36-33.60 71.40-37.20L71.40-37.20L71.40-37.20Q75.44-40.80 82.08-40.80L82.08-40.80L82.08-40.80Q88.72-40.80 92.44-37.24L92.44-37.24L92.44-37.24Q96.16-33.68 96.16-27.36L96.16-27.36L96.16-16.96L71.84-15.60L71.84-10.72L71.84-10.72Q71.84-6.88 74.32-4.96L74.32-4.96L74.32-4.96Q76.80-3.04 80.80-3.04L80.80-3.04L80.80-3.04Q86.40-3.04 92.40-6.24L92.40-6.24L94.16-2.80zM91.68-27.92L91.68-27.92Q91.68-32.88 88.56-34.92L88.56-34.92L88.56-34.92Q85.44-36.96 82-36.96L82-36.96L82-36.96Q77.60-36.96 74.72-34.56L74.72-34.56L74.72-34.56Q71.84-32.16 71.84-27.04L71.84-27.04L71.84-20L91.68-20.96L91.68-27.92" fill="#1d3f72" stroke="none" stroke-width="none" transform="translate(-142.27999877929688,21.32728803846571)" style="fill: rgb(86, 153, 210); animation-play-state: running; animation-delay: 0s;"></path></g><g class="path" style="opacity: 1; transform-origin: -34.52000045776367px -6.6727142333984375px; animation: 3.3333333333333335s linear -1.4666666666666668s infinite normal forwards running blink-5c5d72a0-46a0-477e-9a37-f689c046d06c;"><path d="M105.52 0L105.52-56L110-56L110 0L105.52 0" fill="#1d3f72" stroke="none" stroke-width="none" transform="translate(-142.27999877929688,21.32728803846571)" style="fill: rgb(216, 235, 249); animation-play-state: running; animation-delay: 0s;"></path></g><g class="path" style="opacity: 1; transform-origin: -10.120002746582031px 1.3272876739501953px; animation: 3.3333333333333335s linear -1.2222222222222223s infinite normal forwards running blink-5c5d72a0-46a0-477e-9a37-f689c046d06c;"><path d="M145.04-0.48L145.04-0.48Q140.08 0.80 135.44 0.80L135.44 0.80L135.44 0.80Q131.12 0.80 128.24-0.16L128.24-0.16L128.24-0.16Q123.52-1.76 121.40-5.08L121.40-5.08L121.40-5.08Q119.28-8.40 119.28-14.40L119.28-14.40L119.28-24.64L119.28-24.64Q119.28-32.56 123.44-36.68L123.44-36.68L123.44-36.68Q127.60-40.80 134.16-40.80L134.16-40.80L134.16-40.80Q139.36-40.80 144.88-38.24L144.88-38.24L143.60-34.96L143.60-34.96Q139.04-36.80 134.80-36.80L134.80-36.80L134.80-36.80Q129.84-36.80 126.80-33.96L126.80-33.96L126.80-33.96Q123.76-31.12 123.76-25.12L123.76-25.12L123.76-13.52L123.76-13.52Q123.76-8 127.08-5.52L127.08-5.52L127.08-5.52Q130.40-3.04 135.92-3.04L135.92-3.04L135.92-3.04Q139.52-3.04 144.08-4.08L144.08-4.08L145.04-0.48" fill="#1d3f72" stroke="none" stroke-width="none" transform="translate(-142.27999877929688,21.32728803846571)" style="fill: rgb(113, 194, 204); animation-play-state: running; animation-delay: 0s;"></path></g><g class="path" style="opacity: 1; transform-origin: 25.919998168945312px 1.2472877502441406px; animation: 3.3333333333333335s linear -0.9777777777777779s infinite normal forwards running blink-5c5d72a0-46a0-477e-9a37-f689c046d06c;"><path d="M183.12-14.72L183.12-14.72Q183.12-8 179.44-3.60L179.44-3.60L179.44-3.60Q175.76 0.80 168.32 0.80L168.32 0.80L168.32 0.80Q160.88 0.80 157.08-3.64L157.08-3.64L157.08-3.64Q153.28-8.08 153.28-14.72L153.28-14.72L153.28-25.28L153.28-25.28Q153.28-32.88 157.16-36.92L157.16-36.92L157.16-36.92Q161.04-40.96 168.32-40.96L168.32-40.96L168.32-40.96Q175.28-40.96 179.20-36.76L179.20-36.76L179.20-36.76Q183.12-32.56 183.12-25.28L183.12-25.28L183.12-14.72zM178.64-25.28L178.64-25.28Q178.64-31.28 175.88-34.08L175.88-34.08L175.88-34.08Q173.12-36.88 168.32-36.88L168.32-36.88L168.32-36.88Q163.36-36.88 160.56-34.08L160.56-34.08L160.56-34.08Q157.76-31.28 157.76-25.28L157.76-25.28L157.76-13.92L157.76-13.92Q157.76-9.12 160.60-6.16L160.60-6.16L160.60-6.16Q163.44-3.20 168.32-3.20L168.32-3.20L168.32-3.20Q173.28-3.20 175.96-6.12L175.96-6.12L175.96-6.12Q178.64-9.04 178.64-13.92L178.64-13.92L178.64-25.28" fill="#1d3f72" stroke="none" stroke-width="none" transform="translate(-142.27999877929688,21.32728803846571)" style="fill: rgb(73, 150, 162); animation-play-state: running; animation-delay: 0s;"></path></g><g class="path" style="opacity: 1; transform-origin: 74.68000030517578px 0.9272880554199219px; animation: 3.3333333333333335s linear -0.7333333333333334s infinite normal forwards running blink-5c5d72a0-46a0-477e-9a37-f689c046d06c;"><path d="M237.52 0L237.52-27.44L237.52-27.44Q237.52-32.24 235.00-34.48L235.00-34.48L235.00-34.48Q232.48-36.72 228.48-36.72L228.48-36.72L228.48-36.72Q225.36-36.72 221.52-35.36L221.52-35.36L218.56-33.92L218.56-33.92Q219.92-31.20 219.92-27.68L219.92-27.68L219.92 0L215.52 0L215.52-27.44L215.52-27.44Q215.52-32.32 213.00-34.52L213.00-34.52L213.00-34.52Q210.48-36.72 206.40-36.72L206.40-36.72L206.40-36.72Q203.92-36.72 201.28-35.96L201.28-35.96L201.28-35.96Q198.64-35.20 196.48-34L196.48-34L196.48 0L192.00 0L192.00-40.08L196.48-40.08L196.08-37.52L196.08-37.52Q201.36-40.64 206.88-40.64L206.88-40.64L206.88-40.64Q209.76-40.64 212.28-39.68L212.28-39.68L212.28-39.68Q214.80-38.72 216.56-36.88L216.56-36.88L216.56-36.88Q217.68-37.52 219.92-38.64L219.92-38.64L219.92-38.64Q224.64-40.80 229.04-40.80L229.04-40.80L229.04-40.80Q234.72-40.80 238.32-37.32L238.32-37.32L238.32-37.32Q241.92-33.84 241.92-27.68L241.92-27.68L241.92 0L237.52 0" fill="#1d3f72" stroke="none" stroke-width="none" transform="translate(-142.27999877929688,21.32728803846571)" style="fill: rgb(120, 84, 113); animation-play-state: running; animation-delay: 0s;"></path></g><g class="path" style="opacity: 1; transform-origin: 119.4800033569336px 1.40728759765625px; animation: 3.3333333333333335s linear -0.48888888888888893s infinite normal forwards running blink-5c5d72a0-46a0-477e-9a37-f689c046d06c;"><path d="M274.16-2.80L274.16-2.80Q271.28-0.96 267.60 0L267.60 0L267.60 0Q263.92 0.96 260.24 0.96L260.24 0.96L260.24 0.96Q254.32 0.96 250.84-1.96L250.84-1.96L250.84-1.96Q247.36-4.88 247.36-10.72L247.36-10.72L247.36-27.12L247.36-27.12Q247.36-33.60 251.40-37.20L251.40-37.20L251.40-37.20Q255.44-40.80 262.08-40.80L262.08-40.80L262.08-40.80Q268.72-40.80 272.44-37.24L272.44-37.24L272.44-37.24Q276.16-33.68 276.16-27.36L276.16-27.36L276.16-16.96L251.84-15.60L251.84-10.72L251.84-10.72Q251.84-6.88 254.32-4.96L254.32-4.96L254.32-4.96Q256.80-3.04 260.80-3.04L260.80-3.04L260.80-3.04Q266.40-3.04 272.40-6.24L272.40-6.24L274.16-2.80zM271.68-27.92L271.68-27.92Q271.68-32.88 268.56-34.92L268.56-34.92L268.56-34.92Q265.44-36.96 262.00-36.96L262.00-36.96L262.00-36.96Q257.60-36.96 254.72-34.56L254.72-34.56L254.72-34.56Q251.84-32.16 251.84-27.04L251.84-27.04L251.84-20L271.68-20.96L271.68-27.92" fill="#1d3f72" stroke="none" stroke-width="none" transform="translate(-142.27999877929688,21.32728803846571)" style="fill: rgb(232, 205, 197); animation-play-state: running; animation-delay: 0s;"></path></g><g class="path" style="opacity: 1; transform-origin: 145.9600067138672px -11.872711181640625px; animation: 3.3333333333333335s linear -0.24444444444444446s infinite normal forwards running blink-5c5d72a0-46a0-477e-9a37-f689c046d06c;"><path d="M286.40-9.60L285.60-53.84L285.60-53.84Q285.60-55.28 286.32-56.04L286.32-56.04L286.32-56.04Q287.04-56.80 288.24-56.80L288.24-56.80L288.24-56.80Q289.44-56.80 290.16-56.08L290.16-56.08L290.16-56.08Q290.88-55.36 290.88-53.92L290.88-53.92L290.16-9.60L286.40-9.60" fill="#1d3f72" stroke="none" stroke-width="none" transform="translate(-142.27999877929688,21.32728803846571)" style="fill: rgb(238, 231, 216); animation-play-state: running; animation-delay: 0s;"></path></g><g class="path" style="opacity: 1; transform-origin: 145.87998962402344px 18.687287092208862px; animation: 3.3333333333333335s linear 0s infinite normal forwards running blink-5c5d72a0-46a0-477e-9a37-f689c046d06c;"><path d="M288.16 0L288.16 0Q287.12 0 286.32-0.80L286.32-0.80L286.32-0.80Q285.52-1.60 285.52-2.64L285.52-2.64L285.52-2.64Q285.52-3.76 286.32-4.52L286.32-4.52L286.32-4.52Q287.12-5.28 288.16-5.28L288.16-5.28L288.16-5.28Q289.28-5.28 290.04-4.52L290.04-4.52L290.04-4.52Q290.80-3.76 290.80-2.64L290.80-2.64L290.80-2.64Q290.80-1.60 290.04-0.80L290.04-0.80L290.04-0.80Q289.28 0 288.16 0L288.16 0" fill="#1d3f72" stroke="none" stroke-width="none" transform="translate(-142.27999877929688,21.32728803846571)" style="fill: rgb(29, 63, 114); animation-play-state: running; animation-delay: 0s;"></path></g></g>
</g>
</g>
<style id="blink-5c5d72a0-46a0-477e-9a37-f689c046d06c" data-anikit="">@keyframes blink-5c5d72a0-46a0-477e-9a37-f689c046d06c {
  0% { opacity: 1; }
  49.75% { opacity: 1; }
  50.25% { opacity: 0; }
  99.5% { opacity: 0; }
  100% { opacity: 1; }
}</style></svg>