<?xml version="1.0" encoding="utf-8"?>
<svg xmlns="http://www.w3.org/2000/svg" style="margin: auto; background-image: none; display: block; shape-rendering: auto;" width="288" height="127" preserveAspectRatio="xMidYMid">
<style type="text/css">
  text {
    text-anchor: middle; font-size: 74px; opacity: 0;
  }
</style>
<g style="transform-origin:144px 63.5px;transform:scale(1)">
<g transform="translate(144,63.5)">
  <g transform="translate(0,0)"><g class="path" style="opacity: 1; transform-origin: -100.08498954772949px -6.172082901000977px; animation: 3.3333333333333335s linear -1.9555555555555557s infinite normal forwards running blink-5c5d72a0-46a0-477e-9a37-f689c046d06c;"><path d="M38.92 0L31.60-44.33L24.27 0L17.98 0L5.77-51.80L10.21-51.80L20.79-5.11L28.71-51.80L34.48-51.80L42.40-5.11L52.84-51.80L57.28-51.80L45.21 0L38.92 0" fill="#1d3f72" stroke="none" stroke-width="none" transform="translate(-131.6099853515625,19.727914564344616)" style="fill: rgb(29, 63, 114);"></path></g><g class="path" style="opacity: 1; transform-origin: -55.979990005493164px 1.3029136657714844px; animation: 3.3333333333333335s linear -1.7111111111111112s infinite normal forwards running blink-5c5d72a0-46a0-477e-9a37-f689c046d06c;"><path d="M87.10-2.59L87.10-2.59Q84.43-0.89 81.03 0L81.03 0L81.03 0Q77.63 0.89 74.22 0.89L74.22 0.89L74.22 0.89Q68.75 0.89 65.53-1.81L65.53-1.81L65.53-1.81Q62.31-4.51 62.31-9.92L62.31-9.92L62.31-25.09L62.31-25.09Q62.31-31.08 66.05-34.41L66.05-34.41L66.05-34.41Q69.78-37.74 75.92-37.74L75.92-37.74L75.92-37.74Q82.07-37.74 85.51-34.45L85.51-34.45L85.51-34.45Q88.95-31.15 88.95-25.31L88.95-25.31L88.95-15.69L66.45-14.43L66.45-9.92L66.45-9.92Q66.45-6.36 68.75-4.59L68.75-4.59L68.75-4.59Q71.04-2.81 74.74-2.81L74.74-2.81L74.74-2.81Q79.92-2.81 85.47-5.77L85.47-5.77L87.10-2.59zM84.80-25.83L84.80-25.83Q84.80-30.41 81.92-32.30L81.92-32.30L81.92-32.30Q79.03-34.19 75.85-34.19L75.85-34.19L75.85-34.19Q71.78-34.19 69.12-31.97L69.12-31.97L69.12-31.97Q66.45-29.75 66.45-25.01L66.45-25.01L66.45-18.50L84.80-19.39L84.80-25.83" fill="#1d3f72" stroke="none" stroke-width="none" transform="translate(-131.6099853515625,19.727914564344616)" style="fill: rgb(86, 153, 210);"></path></g><g class="path" style="opacity: 1; transform-origin: -31.92998504638672px -6.172082901000977px; animation: 3.3333333333333335s linear -1.4666666666666668s infinite normal forwards running blink-5c5d72a0-46a0-477e-9a37-f689c046d06c;"><path d="M97.61 0L97.61-51.80L101.75-51.80L101.75 0L97.61 0" fill="#1d3f72" stroke="none" stroke-width="none" transform="translate(-131.6099853515625,19.727914564344616)" style="fill: rgb(216, 235, 249);"></path></g><g class="path" style="opacity: 1; transform-origin: -9.364982604980469px 1.227914810180664px; animation: 3.3333333333333335s linear -1.2222222222222223s infinite normal forwards running blink-5c5d72a0-46a0-477e-9a37-f689c046d06c;"><path d="M134.16-0.44L134.16-0.44Q129.57 0.74 125.28 0.74L125.28 0.74L125.28 0.74Q121.29 0.74 118.62-0.15L118.62-0.15L118.62-0.15Q114.26-1.63 112.30-4.70L112.30-4.70L112.30-4.70Q110.33-7.77 110.33-13.32L110.33-13.32L110.33-22.79L110.33-22.79Q110.33-30.12 114.18-33.93L114.18-33.93L114.18-33.93Q118.03-37.74 124.10-37.74L124.10-37.74L124.10-37.74Q128.91-37.74 134.01-35.37L134.01-35.37L132.83-32.34L132.83-32.34Q128.61-34.04 124.69-34.04L124.69-34.04L124.69-34.04Q120.10-34.04 117.29-31.41L117.29-31.41L117.29-31.41Q114.48-28.79 114.48-23.24L114.48-23.24L114.48-12.51L114.48-12.51Q114.48-7.40 117.55-5.11L117.55-5.11L117.55-5.11Q120.62-2.81 125.73-2.81L125.73-2.81L125.73-2.81Q129.06-2.81 133.27-3.77L133.27-3.77L134.16-0.44" fill="#1d3f72" stroke="none" stroke-width="none" transform="translate(-131.6099853515625,19.727914564344616)" style="fill: rgb(113, 194, 204);"></path></g><g class="path" style="opacity: 1; transform-origin: 23.975013732910156px 1.1529159545898438px; animation: 3.3333333333333335s linear -0.9777777777777779s infinite normal forwards running blink-5c5d72a0-46a0-477e-9a37-f689c046d06c;"><path d="M169.39-13.62L169.39-13.62Q169.39-7.40 165.98-3.33L165.98-3.33L165.98-3.33Q162.58 0.74 155.70 0.74L155.70 0.74L155.70 0.74Q148.81 0.74 145.30-3.37L145.30-3.37L145.30-3.37Q141.78-7.47 141.78-13.62L141.78-13.62L141.78-23.38L141.78-23.38Q141.78-30.41 145.37-34.15L145.37-34.15L145.37-34.15Q148.96-37.89 155.70-37.89L155.70-37.89L155.70-37.89Q162.13-37.89 165.76-34.00L165.76-34.00L165.76-34.00Q169.39-30.12 169.39-23.38L169.39-23.38L169.39-13.62zM165.24-23.38L165.24-23.38Q165.24-28.93 162.69-31.52L162.69-31.52L162.69-31.52Q160.14-34.11 155.70-34.11L155.70-34.11L155.70-34.11Q151.11-34.11 148.52-31.52L148.52-31.52L148.52-31.52Q145.93-28.93 145.93-23.38L145.93-23.38L145.93-12.88L145.93-12.88Q145.93-8.44 148.56-5.70L148.56-5.70L148.56-5.70Q151.18-2.96 155.70-2.96L155.70-2.96L155.70-2.96Q160.28-2.96 162.76-5.66L162.76-5.66L162.76-5.66Q165.24-8.36 165.24-12.88L165.24-12.88L165.24-23.38" fill="#1d3f72" stroke="none" stroke-width="none" transform="translate(-131.6099853515625,19.727914564344616)" style="fill: rgb(73, 150, 162);"></path></g><g class="path" style="opacity: 1; transform-origin: 69.08001708984375px 0.8579139709472656px; animation: 3.3333333333333335s linear -0.7333333333333334s infinite normal forwards running blink-5c5d72a0-46a0-477e-9a37-f689c046d06c;"><path d="M219.71 0L219.71-25.38L219.71-25.38Q219.71-29.82 217.38-31.89L217.38-31.89L217.38-31.89Q215.04-33.97 211.34-33.97L211.34-33.97L211.34-33.97Q208.46-33.97 204.91-32.71L204.91-32.71L202.17-31.38L202.17-31.38Q203.43-28.86 203.43-25.60L203.43-25.60L203.43 0L199.36 0L199.36-25.38L199.36-25.38Q199.36-29.90 197.03-31.93L197.03-31.93L197.03-31.93Q194.69-33.97 190.92-33.97L190.92-33.97L190.92-33.97Q188.63-33.97 186.18-33.26L186.18-33.26L186.18-33.26Q183.74-32.56 181.74-31.45L181.74-31.45L181.74 0L177.60 0L177.60-37.07L181.74-37.07L181.37-34.71L181.37-34.71Q186.26-37.59 191.36-37.59L191.36-37.59L191.36-37.59Q194.03-37.59 196.36-36.70L196.36-36.70L196.36-36.70Q198.69-35.82 200.32-34.11L200.32-34.11L200.32-34.11Q201.35-34.71 203.43-35.74L203.43-35.74L203.43-35.74Q207.79-37.74 211.86-37.74L211.86-37.74L211.86-37.74Q217.12-37.74 220.45-34.52L220.45-34.52L220.45-34.52Q223.78-31.30 223.78-25.60L223.78-25.60L223.78 0L219.71 0" fill="#1d3f72" stroke="none" stroke-width="none" transform="translate(-131.6099853515625,19.727914564344616)" style="fill: rgb(120, 84, 113);"></path></g><g class="path" style="opacity: 1; transform-origin: 110.52001190185547px 1.3029136657714844px; animation: 3.3333333333333335s linear -0.48888888888888893s infinite normal forwards running blink-5c5d72a0-46a0-477e-9a37-f689c046d06c;"><path d="M253.60-2.59L253.60-2.59Q250.93-0.89 247.53 0L247.53 0L247.53 0Q244.13 0.89 240.72 0.89L240.72 0.89L240.72 0.89Q235.25 0.89 232.03-1.81L232.03-1.81L232.03-1.81Q228.81-4.51 228.81-9.92L228.81-9.92L228.81-25.09L228.81-25.09Q228.81-31.08 232.55-34.41L232.55-34.41L232.55-34.41Q236.28-37.74 242.42-37.74L242.42-37.74L242.42-37.74Q248.57-37.74 252.01-34.45L252.01-34.45L252.01-34.45Q255.45-31.15 255.45-25.31L255.45-25.31L255.45-15.69L232.95-14.43L232.95-9.92L232.95-9.92Q232.95-6.36 235.25-4.59L235.25-4.59L235.25-4.59Q237.54-2.81 241.24-2.81L241.24-2.81L241.24-2.81Q246.42-2.81 251.97-5.77L251.97-5.77L253.60-2.59zM251.30-25.83L251.30-25.83Q251.30-30.41 248.42-32.30L248.42-32.30L248.42-32.30Q245.53-34.19 242.35-34.19L242.35-34.19L242.35-34.19Q238.28-34.19 235.62-31.97L235.62-31.97L235.62-31.97Q232.95-29.75 232.95-25.01L232.95-25.01L232.95-18.50L251.30-19.39L251.30-25.83" fill="#1d3f72" stroke="none" stroke-width="none" transform="translate(-131.6099853515625,19.727914564344616)" style="fill: rgb(232, 205, 197);"></path></g><g class="path" style="opacity: 1; transform-origin: 135.010009765625px -10.982088088989258px; animation: 3.3333333333333335s linear -0.24444444444444446s infinite normal forwards running blink-5c5d72a0-46a0-477e-9a37-f689c046d06c;"><path d="M264.92-8.88L264.18-49.80L264.18-49.80Q264.18-51.13 264.85-51.84L264.85-51.84L264.85-51.84Q265.51-52.54 266.62-52.54L266.62-52.54L266.62-52.54Q267.73-52.54 268.40-51.87L268.40-51.87L268.40-51.87Q269.06-51.21 269.06-49.88L269.06-49.88L268.40-8.88L264.92-8.88" fill="#1d3f72" stroke="none" stroke-width="none" transform="translate(-131.6099853515625,19.727914564344616)" style="fill: rgb(238, 231, 216);"></path></g><g class="path" style="opacity: 1; transform-origin: 134.94000244140625px 17.287914752960205px; animation: 3.3333333333333335s linear 0s infinite normal forwards running blink-5c5d72a0-46a0-477e-9a37-f689c046d06c;"><path d="M266.55 0L266.55 0Q265.59 0 264.85-0.74L264.85-0.74L264.85-0.74Q264.11-1.48 264.11-2.44L264.11-2.44L264.11-2.44Q264.11-3.48 264.85-4.18L264.85-4.18L264.85-4.18Q265.59-4.88 266.55-4.88L266.55-4.88L266.55-4.88Q267.58-4.88 268.29-4.18L268.29-4.18L268.29-4.18Q268.99-3.48 268.99-2.44L268.99-2.44L268.99-2.44Q268.99-1.48 268.29-0.74L268.29-0.74L268.29-0.74Q267.58 0 266.55 0L266.55 0" fill="#1d3f72" stroke="none" stroke-width="none" transform="translate(-131.6099853515625,19.727914564344616)" style="fill: rgb(29, 63, 114);"></path></g></g>
</g>
</g>
<style id="blink-5c5d72a0-46a0-477e-9a37-f689c046d06c" data-anikit="">@keyframes blink-5c5d72a0-46a0-477e-9a37-f689c046d06c {
  0% { opacity: 1; }
  49.75% { opacity: 1; }
  50.25% { opacity: 0; }
  99.5% { opacity: 0; }
  100% { opacity: 1; }
}</style></svg>